<svg xmlns="http://www.w3.org/2000/svg" width="331.777" height="388" viewBox="0 0 331.777 388"><defs><style>.a{fill:none;}.b{fill:#0f578c;}.c{fill:#75a7d2;}.d{fill:#fff;}</style></defs><g transform="translate(-483.8 -491.899)"><g transform="translate(536.046 491.899)"><path class="a" d="M507.724,520.377l-71.436-71.425A79.727,79.727,0,0,0,507.724,520.377Z" transform="translate(-375.839 -301.294)"/><path class="a" d="M589.984,520.367a79.72,79.72,0,0,0-153.14-31.048L541.325,593.8A79.73,79.73,0,0,0,589.984,520.367Z" transform="translate(-370.511 -380.601)"/><path class="b" d="M491.015,496.85l-52.9-52.906a138.2,138.2,0,0,0,5.948,104.64h-.18l1.173,2.06a139.546,139.546,0,0,0,8.494,15.012l89.226,157.6a27.469,27.469,0,0,0,47.381.729l48.4-79.613-76.105-76.1A79.729,79.729,0,0,1,491.015,496.85Z" transform="translate(-430.566 -349.192)"/><path class="c" d="M550.3,495.033a79.721,79.721,0,0,1,31.048,153.141l54.111,54.111,26.95-44.339c4.838-8.23,9.549-15.963,14.155-23.579A139.637,139.637,0,0,0,432.66,499.481l44.212,44.211A79.73,79.73,0,0,1,550.3,495.033Z" transform="translate(-410.538 -434.975)"/></g><g transform="translate(483.8 536.148)"><path class="d" d="M723.635,753.005a15.794,15.794,0,0,1-11.209-4.638L430.264,466.213a15.844,15.844,0,1,1,22.407-22.406L734.833,725.96a15.842,15.842,0,0,1-11.2,27.045Z" transform="translate(-425.621 -439.164)"/></g></g></svg>