<svg xmlns="http://www.w3.org/2000/svg" width="426.251" height="388" viewBox="0 0 426.251 388"><defs><style>.a{fill:#75a7d2;}.b{fill:#fff;}.c{fill:#0f578c;fill-rule:evenodd;}</style></defs><g transform="translate(-276.711 -501.405)"><g transform="translate(299.712 721.517)"><path class="a" d="M312.2,524.213,280.05,604.448a18.5,18.5,0,0,0,1.688,17.067c1.459,2.159,4.7,5.777,9.969,5.777h57.368l15.092-86.839Z" transform="translate(-278.714 -482.373)"/><path class="a" d="M456.317,579.813l-13.534-59.243H301.118l-13.76,79.176Z" transform="translate(-188.085 -520.567)"/><path class="a" d="M337.823,520.57H300.588c-4.9,0-9.475,3.527-11.657,8.982l-6.742,16.814,48.513,15.16Z" transform="translate(-242.275 -520.57)"/><path class="a" d="M294.708,547.952l-8.345,48.016H486.317L470.607,527.2Z" transform="translate(-198.515 -451.055)"/><path class="a" d="M408.975,642.633,363.563,529.54c-2.182-5.456-6.753-8.97-11.646-8.97H302.428l33.111,144.919h61.778c5.283,0,8.522-3.63,9.981-5.777A18.561,18.561,0,0,0,408.975,642.633Z" transform="translate(-30.067 -520.57)"/><path class="a" d="M288.056,522.816l-6.427,16.04h0l6.427-16.04Z" transform="translate(-248.142 -497.019)"/></g><g transform="translate(276.711 698.546)"><path class="b" d="M666.963,709.429H312.706c-11.6,0-22.166-5.788-29-15.872a41.208,41.208,0,0,1-3.974-38.486l45.309-113.106c5.7-14.207,18.64-23.395,32.985-23.395H621.562c14.322,0,27.265,9.176,32.962,23.372l45.412,113.094a41.258,41.258,0,0,1-3.962,38.509C689.152,703.64,678.574,709.429,666.963,709.429ZM358.026,541.54c-4.9,0-9.475,3.526-11.657,8.982l-45.32,113.093a18.5,18.5,0,0,0,1.688,17.067c1.459,2.159,4.7,5.777,9.969,5.777H666.963c5.283,0,8.522-3.63,9.981-5.777A18.56,18.56,0,0,0,678.62,663.6L633.208,550.51c-2.182-5.456-6.753-8.97-11.646-8.97Z" transform="translate(-276.711 -518.57)"/></g><path class="c" d="M385.933,501.4a99.142,99.142,0,0,0-89.721,141.681h-.126l.827,1.458a101.046,101.046,0,0,0,6.041,10.67L366.363,767.2a19.517,19.517,0,0,0,33.663.517l65.568-107.88c3.446-5.846,6.788-11.347,10.061-16.756A99.141,99.141,0,0,0,385.933,501.4Zm0,155.956a56.644,56.644,0,1,1,56.644-56.645A56.642,56.642,0,0,1,385.933,657.361Z" transform="translate(103.918 0)"/></g></svg>