<svg xmlns="http://www.w3.org/2000/svg" width="430.258" height="388" viewBox="0 0 430.258 388"><defs><style>.a{fill:#75a7d2;fill-rule:evenodd;}.b{fill:#0f578c;}.c{fill:#fff;}</style></defs><g transform="translate(-40.171 -462.221)"><g transform="translate(40.171 619.903)"><path class="a" d="M-22.389,643.044l39.775-190.52A19.9,19.9,0,0,1,36.855,436.69H354.4a19.914,19.914,0,0,1,19.6,16.487L407.143,643.7a19.9,19.9,0,0,1-19.6,23.31H-2.92A19.891,19.891,0,0,1-22.389,643.044Z" transform="translate(22.816 -436.69)"/><g transform="translate(49.974 6.06)"><path class="b" d="M-7.439,476.025a9.748,9.748,0,0,1-2.536-.337c-5.811-1.525-9.424-6.944-7.9-12.755l.283-1.055A10.874,10.874,0,0,1-4.3,454.119a10.873,10.873,0,0,1,7.759,13.287A11.591,11.591,0,0,1-7.439,476.025Z" transform="translate(18.224 -274.088)"/><path class="b" d="M-6.66,473.027a9.714,9.714,0,0,1-2.481-.327c-5.833-1.491-9.457-6.9-7.966-12.721l.272-1.045A10.89,10.89,0,0,1-3.58,451.1a10.9,10.9,0,0,1,7.825,13.255A11.6,11.6,0,0,1-6.66,473.027Z" transform="translate(25.945 -303.737)"/><path class="b" d="M-4.944,470.068a10.629,10.629,0,0,1-8.292-3.755c-3.8-4.592-3.613-11.035.936-14.9l1.023-.849A10.889,10.889,0,0,1,4.034,452.2,10.89,10.89,0,0,1,2.4,467.51,11.761,11.761,0,0,1-4.944,470.068Z" transform="translate(41.064 -329.497)"/><path class="b" d="M10.2,447.18c6.094-.065,11.786,4.538,11.96,10.534a10.9,10.9,0,0,1-10.556,11.209l-1.4.021a10.882,10.882,0,1,1,0-21.764" transform="translate(191.594 -339.082)"/><path class="b" d="M8.19,468.945H7.1a10.883,10.883,0,0,1,0-21.766H8.19a10.883,10.883,0,0,1,0,21.766Z" transform="translate(160.958 -339.082)"/><path class="b" d="M5.1,468.945H4A10.883,10.883,0,0,1,4,447.18H5.1a10.883,10.883,0,0,1,0,21.766Z" transform="translate(130.312 -339.082)"/><path class="b" d="M1.485,468.945c-6.007,0-11.416-4.876-11.416-10.883S-5.6,447.18.407,447.18H1.485a10.883,10.883,0,0,1,0,21.766Z" transform="translate(100.18 -339.082)"/><path class="b" d="M-1.11,468.945H-2.2a10.887,10.887,0,0,1-10.883-10.883A10.88,10.88,0,0,1-2.2,447.18H-1.11A10.88,10.88,0,0,1,9.772,458.063,10.887,10.887,0,0,1-1.11,468.945Z" transform="translate(69.051 -339.082)"/><path class="b" d="M13.04,468.538a10.883,10.883,0,0,1-7.291-18.969l.729-.663a10.887,10.887,0,0,1,14.735,16.03l-.881.794A10.845,10.845,0,0,1,13.04,468.538Z" transform="translate(219.607 -350.417)"/><path class="b" d="M3.827,452.913a10.879,10.879,0,1,1,21.6,2.611c-.011.1-.163,1.252-.174,1.35a10.9,10.9,0,0,1-10.752,9.3,9.928,9.928,0,0,1-1.6-.12,10.878,10.878,0,0,1-9.185-12.352" transform="translate(233.913 -377.081)"/><path class="b" d="M14.387,463.1a10.881,10.881,0,0,1-10.806-9.718l-.12-1.087A10.88,10.88,0,1,1,25.1,449.967l.12,1.077a10.9,10.9,0,0,1-9.653,11.992A10.505,10.505,0,0,1,14.387,463.1Z" transform="translate(231.906 -407.599)"/><path class="b" d="M13.387,460.1a10.881,10.881,0,0,1-10.806-9.718l-.12-1.089A10.88,10.88,0,0,1,24.1,446.967l.12,1.078a10.9,10.9,0,0,1-9.653,11.992A10.667,10.667,0,0,1,13.387,460.1Z" transform="translate(222.024 -437.247)"/></g></g><g transform="translate(254.248 462.221)"><g transform="translate(0)"><path class="c" d="M13.185,542.828A16.319,16.319,0,0,1,1.638,514.969l87.985-87.985a16.321,16.321,0,0,1,23.082,23.082L24.731,538.05A16.27,16.27,0,0,1,13.185,542.828Z" transform="translate(3.144 -422.201)"/></g><g transform="translate(0)"><path class="c" d="M101.17,542.828a16.27,16.27,0,0,1-11.546-4.778L1.638,450.065a16.325,16.325,0,0,1,23.093-23.082l87.974,87.985a16.319,16.319,0,0,1-11.535,27.859Z" transform="translate(3.144 -422.201)"/></g><path class="c" d="M12.387,457.1a10.881,10.881,0,0,1-10.806-9.718l-.12-1.087A10.88,10.88,0,1,1,23.1,443.967l.12,1.077a10.9,10.9,0,0,1-9.653,11.992A10.506,10.506,0,0,1,12.387,457.1Z" transform="translate(51.038 -303.152)"/><path class="c" d="M12.387,454.1a10.881,10.881,0,0,1-10.806-9.717l-.12-1.089A10.88,10.88,0,1,1,23.1,440.967l.12,1.077A10.9,10.9,0,0,1,12.387,454.1Z" transform="translate(48.038 -332.8)"/></g></g></svg>