<svg xmlns="http://www.w3.org/2000/svg" width="31.637" height="31.637" viewBox="0 0 31.637 31.637"><defs><style>.a{fill:#cccccb;}</style></defs><g transform="translate(0 0)"><path class="a" d="M65.85,2.226A15.818,15.818,0,1,0,81.64,18.075,15.819,15.819,0,0,0,65.85,2.226Zm0,30.1A14.252,14.252,0,1,1,80.1,18.075h0A14.262,14.262,0,0,1,65.85,32.327Z" transform="translate(-50.003 -2.226)"/><path class="a" d="M66.779,6.248a12.839,12.839,0,1,0,12.838,12.84h0A12.871,12.871,0,0,0,66.779,6.248ZM70.265,14.6H68.724a.876.876,0,0,0-.876.877V17.21h2.379l-.329,2.5h-2.05V25.82h-2.5V19.706h-2.06v-2.5h2.06v-2.1a2.76,2.76,0,0,1,2.761-2.76h2.154Z" transform="translate(-50.994 -3.238)"/></g></svg>