<svg xmlns="http://www.w3.org/2000/svg" width="31.637" height="31.637" viewBox="0 0 31.637 31.637"><defs><style>.a{fill:#cccccb;}</style></defs><g transform="translate(0 0)"><path class="a" d="M111.85,2.226a15.818,15.818,0,1,0,15.79,15.849A15.819,15.819,0,0,0,111.85,2.226Zm0,30.1A14.252,14.252,0,1,1,126.1,18.075h0A14.262,14.262,0,0,1,111.85,32.327Z" transform="translate(-96.003 -2.226)"/><g transform="translate(2.945 3.01)"><path class="a" d="M118.229,22v-.03c-.006.01-.015.02-.02.03Z" transform="translate(-104.537 -10.204)"/><path class="a" d="M112.779,6.248a12.839,12.839,0,1,0,12.838,12.84h0A12.871,12.871,0,0,0,112.779,6.248ZM108.9,25.881H105.85V16.713H108.9Zm-1.524-10.419h-.02a1.741,1.741,0,1,1,.02,0Zm12.514,10.419h-3.048v-4.9c0-1.232-.44-2.073-1.543-2.073a1.668,1.668,0,0,0-1.564,1.114,2.092,2.092,0,0,0-.1.743v5.12h-3.049s.041-8.307,0-9.168h3.049v1.3a3.026,3.026,0,0,1,2.747-1.514c2.006,0,3.509,1.31,3.509,4.126Z" transform="translate(-99.939 -6.248)"/></g></g></svg>