<svg xmlns="http://www.w3.org/2000/svg" width="31.637" height="31.637" viewBox="0 0 31.637 31.637"><defs><style>.a{fill:#cccccb;}</style></defs><g transform="translate(0 0)"><path class="a" d="M29.309,25.129a1.272,1.272,0,0,0-1.292,1.251c0,.034,0,.067,0,.1v2.027a1.247,1.247,0,0,0,1.074,1.4,1.189,1.189,0,0,0,.155.011c.921,0,1.29-.553,1.29-1.413v-.369h-.861v.307c0,.369,0,.614-.369.614s-.369-.307-.369-.614v-.8h1.6V26.48a1.2,1.2,0,0,0-1.227-1.352Zm.369,1.843H28.94v-.43c0-.307.061-.553.369-.553s.369.245.369.553Z" transform="translate(-8.547 -7.99)"/><path class="a" d="M25.515,24.695a.936.936,0,0,0-.737.43V23.159h-.86v6.2h.86V29a.967.967,0,0,0,.8.43c.553,0,.8-.43.8-.983v-2.52C26.376,25.248,26.129,24.695,25.515,24.695Zm0,3.563a.464.464,0,0,1-.061.307.38.38,0,0,1-.43.061c-.061-.061-.123-.061-.184-.184V25.617c.061-.061.123-.123.184-.123.123-.061.369-.061.43.061.061.061.061.184.061.369Z" transform="translate(-7.518 -7.494)"/><path class="a" d="M21.164,28.817c-.123.123-.307.369-.492.369s-.245-.123-.245-.307v-3.5h-.86v3.809c0,.921.614.921,1.106.674a3.094,3.094,0,0,0,.492-.43v.492h.86V25.375h-.861Z" transform="translate(-6.423 -8.052)"/><path class="a" d="M18.657,23.159H15.709v.86h.983V29.3h.983V24.019h.983Z" transform="translate(-5.452 -7.494)"/><path class="a" d="M18.779,6.248a12.839,12.839,0,1,0,12.838,12.84h0A12.871,12.871,0,0,0,18.779,6.248Zm1.782,5.222h.86v3.683c0,.184.061.307.245.307s.43-.245.553-.369V11.47h.858v4.789h-.858v-.553a1.469,1.469,0,0,1-1.048.614c-.492,0-.614-.369-.614-.86Zm-2.027,0A1.259,1.259,0,0,1,19.823,12.7c0,.019,0,.04,0,.06v2.334a1.226,1.226,0,0,1-1.156,1.29,1.333,1.333,0,0,1-.134,0,1.141,1.141,0,0,1-1.293-1.289V12.759a1.165,1.165,0,0,1,1.293-1.289ZM14.909,9.811l.674,2.58.614-2.58h1.048l-1.167,3.87v2.642h-.984V13.681l-1.167-3.87ZM26.335,24.553a2.045,2.045,0,0,1-2.027,2.027H13.8a2.045,2.045,0,0,1-2.026-2.027V19.39A2.045,2.045,0,0,1,13.8,17.363h10.5a2.045,2.045,0,0,1,2.027,2.027Z" transform="translate(-2.994 -3.238)"/><path class="a" d="M22.642,17.607c.245,0,.369-.184.369-.43V14.969c0-.245-.123-.43-.369-.43s-.369.184-.369.43v2.211a.367.367,0,0,0,.3.421A.376.376,0,0,0,22.642,17.607Z" transform="translate(-7.103 -5.325)"/><path class="a" d="M17.85,2.226A15.818,15.818,0,1,0,33.64,18.075,15.819,15.819,0,0,0,17.85,2.226Zm0,30.1A14.252,14.252,0,1,1,32.1,18.075h0A14.262,14.262,0,0,1,17.85,32.327Z" transform="translate(-2.003 -2.226)"/></g></svg>