<svg xmlns="http://www.w3.org/2000/svg" width="19.999" height="24" viewBox="0 0 19.999 24"><defs><style>.a{fill:#fff;}</style></defs><g transform="translate(-42.682)"><path class="a" d="M62.61,20.243l-1.717-2.862a8.5,8.5,0,0,1-1.212-4.374V10.5a7.009,7.009,0,0,0-5-6.7V2a2,2,0,1,0-4,0V3.8a7.009,7.009,0,0,0-5,6.7v2.507A8.506,8.506,0,0,1,44.47,17.38l-1.717,2.862a.5.5,0,0,0,.428.758h19a.5.5,0,0,0,.429-.757Z"/><path class="a" d="M191.97,471.333a3.5,3.5,0,0,0,3.149-2h-6.3A3.5,3.5,0,0,0,191.97,471.333Z" transform="translate(-139.289 -447.333)"/></g></svg>