<svg xmlns="http://www.w3.org/2000/svg" width="18.676" height="24" viewBox="0 0 18.676 24"><defs><style>.a{fill:#fff;fill-rule:evenodd;}</style></defs><path class="a" d="M15.039,6.067C15.039,2.677,12.719,0,9.864,0S4.6,2.677,4.6,6.067V7.673c0,4.193,2.32,7.673,5.264,7.673s5.264-3.39,5.264-7.673V6.781A2.217,2.217,0,0,1,15.039,6.067Z" transform="translate(-0.439)"/><path class="a" d="M18.551,23.348l-.714-3.033a2.141,2.141,0,0,0-.625-1.071l-4.1-2.944a4.64,4.64,0,0,1-3.836,2.409A4.64,4.64,0,0,1,5.436,16.3l-4.1,3.033A1.655,1.655,0,0,0,.707,20.4l-.714,3.033a1.785,1.785,0,0,0,1.428,2.32h15.7A1.854,1.854,0,0,0,18.551,23.348Z" transform="translate(0.064 -1.757)"/></svg>